<svg width="50" height="50" viewBox="0 0 50 50" fill="none" xmlns="http://www.w3.org/2000/svg">
<path d="M0.15625 11.1094C0.471307 9.72889 1.2458 8.49629 2.35288 7.61346C3.45996 6.73064 4.83401 6.2499 6.25 6.25H43.75C45.166 6.2499 46.54 6.73064 47.6471 7.61346C48.7542 8.49629 49.5287 9.72889 49.8437 11.1094L25 26.2938L0.15625 11.1094ZM0 14.6781V36.8781L18.1344 25.7594L0 14.6781ZM21.1281 27.5938L0.596875 40.1781C1.10415 41.2478 1.90477 42.1513 2.90557 42.7837C3.90636 43.416 5.06617 43.7511 6.25 43.75H43.75C44.9336 43.7503 46.093 43.4144 47.0932 42.7815C48.0935 42.1486 48.8934 41.2447 49.4 40.175L28.8687 27.5906L25 29.9563L21.1281 27.5906V27.5938ZM31.8656 25.7625L50 36.8781V14.6781L31.8656 25.7594V25.7625Z" fill="#AB34F5"/>
</svg>
