<svg width="300" height="300" viewBox="0 0 300 300" fill="none" xmlns="http://www.w3.org/2000/svg">
<rect width="300" height="300" rx="60" fill="#53C1DE"/>
<g clip-path="url(#clip0_302_68)">
<g filter="url(#filter0_d_302_68)">
<path d="M22.7541 149.751C22.7541 168.965 41.5166 186.902 71.0972 197.013C65.1902 226.75 70.0386 250.719 86.2325 260.058C102.878 269.657 127.676 263.013 151.213 242.439C174.156 262.182 197.344 269.952 213.523 260.586C230.152 250.959 235.21 225.365 229.14 194.699C259.95 184.513 277.184 169.218 277.184 149.751C277.184 130.982 258.387 114.744 229.205 104.698C235.74 72.7649 230.203 49.3781 213.338 39.6529C197.079 30.2772 173.622 38.4491 150.342 58.7094C126.123 37.2047 102.897 30.639 86.0494 40.3926C69.8062 49.7949 65.1711 74.1989 71.0972 104.487C42.5154 114.452 22.7541 131.057 22.7541 149.751Z" fill="white"/>
</g>
<path d="M223.025 114.674C220.681 113.867 218.252 113.104 215.751 112.382C216.162 110.704 216.539 109.048 216.875 107.421C222.381 80.6934 218.781 59.1617 206.487 52.0725C194.7 45.2749 175.422 52.3625 155.952 69.3063C154.08 70.9356 152.202 72.6607 150.326 74.4686C149.075 73.2724 147.827 72.1165 146.582 71.0109C126.177 52.8934 105.724 45.2584 93.4431 52.3681C81.6667 59.1854 78.1792 79.4273 83.1355 104.757C83.6141 107.204 84.1736 109.702 84.8063 112.242C81.9116 113.064 79.1172 113.94 76.4433 114.872C52.5209 123.212 37.243 136.284 37.243 149.842C37.243 163.846 53.6438 177.891 78.5609 186.408C80.5273 187.08 82.5676 187.715 84.6703 188.319C83.9878 191.066 83.3941 193.759 82.8958 196.384C78.17 221.275 81.8606 241.038 93.6056 247.813C105.737 254.808 126.097 247.617 145.923 230.288C147.49 228.918 149.062 227.465 150.638 225.942C152.68 227.908 154.719 229.769 156.746 231.515C175.95 248.04 194.916 254.713 206.651 247.92C218.77 240.904 222.709 219.673 217.595 193.842C217.205 191.869 216.75 189.854 216.24 187.803C217.67 187.38 219.073 186.944 220.442 186.49C246.346 177.907 263.199 164.033 263.199 149.842C263.199 136.235 247.429 123.075 223.025 114.674Z" fill="#53C1DE"/>
<path d="M150.221 129.666C161.365 129.666 170.398 138.699 170.398 149.843C170.398 160.986 161.365 170.02 150.221 170.02C139.078 170.02 130.044 160.986 130.044 149.843C130.044 138.699 139.078 129.666 150.221 129.666Z" fill="#53C1DE"/>
<path d="M217.406 177.328C216.171 177.737 214.903 178.132 213.611 178.515C210.751 169.462 206.892 159.836 202.169 149.89C206.676 140.18 210.386 130.677 213.166 121.683C215.477 122.351 217.721 123.057 219.883 123.801C240.792 130.999 253.547 141.642 253.547 149.843C253.547 158.577 239.772 169.917 217.406 177.328ZM208.126 195.717C210.387 207.139 210.71 217.466 209.212 225.539C207.866 232.793 205.16 237.629 201.814 239.566C194.693 243.688 179.465 238.33 163.042 224.198C161.159 222.578 159.263 220.848 157.36 219.017C163.727 212.054 170.09 203.959 176.301 194.968C187.224 193.999 197.544 192.415 206.903 190.251C207.364 192.11 207.773 193.934 208.126 195.717ZM114.277 238.854C107.319 241.311 101.778 241.382 98.4288 239.45C91.3014 235.339 88.3384 219.471 92.3801 198.185C92.843 195.747 93.394 193.243 94.0291 190.683C103.285 192.73 113.53 194.203 124.479 195.091C130.731 203.888 137.278 211.974 143.876 219.055C142.435 220.446 140.999 221.771 139.571 223.019C130.804 230.683 122.019 236.12 114.277 238.854ZM81.6828 177.274C70.6649 173.508 61.566 168.614 55.3291 163.273C49.7248 158.474 46.8954 153.709 46.8954 149.843C46.8954 141.615 59.162 131.12 79.6207 123.987C82.1031 123.122 84.7017 122.306 87.3985 121.54C90.2259 130.737 93.935 140.353 98.4111 150.077C93.8771 159.946 90.1153 169.715 87.2601 179.02C85.3376 178.468 83.475 177.886 81.6828 177.274ZM92.6086 102.903C88.3621 81.2015 91.1823 64.8304 98.2792 60.7223C105.838 56.346 122.554 62.5857 140.172 78.2293C141.298 79.2291 142.429 80.2757 143.563 81.3584C136.998 88.4077 130.511 96.4332 124.314 105.179C113.687 106.164 103.515 107.746 94.1618 109.865C93.5738 107.499 93.053 105.175 92.6086 102.903ZM190.076 126.971C187.84 123.109 185.545 119.338 183.205 115.67C190.414 116.582 197.322 117.792 203.808 119.272C201.861 125.513 199.434 132.039 196.576 138.729C194.527 134.838 192.359 130.914 190.076 126.971ZM150.329 88.2569C154.781 93.0805 159.24 98.4659 163.626 104.309C159.206 104.1 154.732 103.992 150.221 103.992C145.753 103.992 141.312 104.098 136.92 104.303C141.31 98.5142 145.807 93.136 150.329 88.2569ZM110.327 127.037C108.094 130.91 105.966 134.812 103.949 138.722C101.138 132.055 98.7332 125.5 96.7689 119.17C103.216 117.727 110.091 116.548 117.254 115.654C114.881 119.355 112.567 123.153 110.327 127.037V127.037ZM117.46 184.72C110.059 183.894 103.081 182.775 96.6358 181.373C98.6315 174.93 101.089 168.234 103.96 161.424C105.982 165.331 108.119 169.235 110.366 173.116H110.366C112.655 177.07 115.026 180.943 117.46 184.72ZM150.596 212.109C146.021 207.172 141.458 201.712 137.001 195.839C141.327 196.009 145.738 196.095 150.221 196.095C154.827 196.095 159.38 195.992 163.861 195.792C159.461 201.771 155.018 207.24 150.596 212.109ZM196.668 161.077C199.689 167.961 202.234 174.621 204.256 180.954C197.704 182.449 190.631 183.653 183.178 184.547C185.524 180.83 187.839 176.995 190.115 173.049C192.416 169.058 194.602 165.061 196.668 161.077ZM181.753 168.227C178.221 174.351 174.595 180.198 170.914 185.716C164.209 186.196 157.281 186.443 150.221 186.443C143.19 186.443 136.35 186.224 129.763 185.797C125.934 180.206 122.229 174.342 118.719 168.28H118.72C115.219 162.234 111.998 156.137 109.079 150.074C111.997 143.997 115.21 137.894 118.69 131.859L118.69 131.86C122.179 125.809 125.852 119.974 129.646 114.418C136.366 113.91 143.257 113.645 150.221 113.645H150.221C157.217 113.645 164.116 113.912 170.834 114.424C174.571 119.939 178.218 125.756 181.721 131.807C185.264 137.927 188.519 143.99 191.462 149.937C188.528 155.986 185.281 162.11 181.753 168.227ZM201.666 60.4352C209.232 64.7986 212.175 82.3965 207.421 105.473C207.118 106.945 206.776 108.445 206.405 109.965C197.031 107.802 186.851 106.192 176.193 105.192C169.985 96.3508 163.551 88.3128 157.092 81.354C158.829 79.6836 160.563 78.0909 162.289 76.5879C178.971 62.0705 194.562 56.3388 201.666 60.4352Z" fill="white"/>
</g>
<defs>
<filter id="filter0_d_302_68" x="18.7541" y="35.7847" width="262.43" height="236.753" filterUnits="userSpaceOnUse" color-interpolation-filters="sRGB">
<feFlood flood-opacity="0" result="BackgroundImageFix"/>
<feColorMatrix in="SourceAlpha" type="matrix" values="0 0 0 0 0 0 0 0 0 0 0 0 0 0 0 0 0 0 127 0" result="hardAlpha"/>
<feOffset dy="4"/>
<feGaussianBlur stdDeviation="2"/>
<feComposite in2="hardAlpha" operator="out"/>
<feColorMatrix type="matrix" values="0 0 0 0 0 0 0 0 0 0 0 0 0 0 0 0 0 0 0.1 0"/>
<feBlend mode="normal" in2="BackgroundImageFix" result="effect1_dropShadow_302_68"/>
<feBlend mode="normal" in="SourceGraphic" in2="effect1_dropShadow_302_68" result="shape"/>
</filter>
<clipPath id="clip0_302_68">
<rect width="256" height="230" fill="white" transform="translate(22 35)"/>
</clipPath>
</defs>
</svg>
