<svg width="300" height="300" viewBox="0 0 300 300" fill="none" xmlns="http://www.w3.org/2000/svg">
<rect width="300" height="300" rx="60" fill="white"/>
<g filter="url(#filter0_d_304_71)">
<path d="M261.713 125.7C261.713 110.722 242.956 96.5273 214.197 87.7247C220.834 58.4133 217.885 35.0931 204.887 27.627C201.891 25.8757 198.39 25.0461 194.564 25.0461V35.3236C196.684 35.3236 198.39 35.7384 199.818 36.5218C206.086 40.1166 208.805 53.8045 206.684 71.4098C206.178 75.742 205.349 80.3046 204.335 84.9594C195.301 82.7472 185.439 81.0421 175.069 79.936C168.848 71.4098 162.395 63.6671 155.897 56.8924C170.921 42.9279 185.024 35.2774 194.61 35.2774V25C181.936 25 165.345 34.0331 148.569 49.7027C131.793 34.1253 115.202 25.1844 102.528 25.1844V35.4618C112.068 35.4618 126.217 43.0662 141.241 56.9384C134.789 63.7133 128.337 71.4098 122.207 79.936C111.791 81.0421 101.929 82.7472 92.8957 85.0055C91.8353 80.3969 91.0521 75.9263 90.4987 71.6402C88.3335 54.035 91.0057 40.347 97.2282 36.7062C98.6102 35.8766 100.407 35.5079 102.528 35.5079V25.2304C98.6565 25.2304 95.1537 26.06 92.1125 27.8114C79.1615 35.2774 76.2585 58.5515 82.9406 87.7708C54.2746 96.6195 35.6093 110.768 35.6093 125.7C35.6093 140.679 54.3667 154.874 83.125 163.676C76.4883 192.988 79.4377 216.308 92.4351 223.774C95.4309 225.525 98.9327 226.354 102.805 226.354C115.478 226.354 132.07 217.322 148.846 201.652C165.621 217.23 182.213 226.171 194.887 226.171C198.757 226.171 202.26 225.341 205.302 223.589C218.252 216.123 221.157 192.849 214.473 163.631C243.048 154.828 261.713 140.633 261.713 125.7V125.7ZM201.708 94.9603C200.002 100.906 197.882 107.035 195.485 113.164C193.596 109.478 191.615 105.791 189.448 102.104C187.329 98.4169 185.07 94.8221 182.812 91.3195C189.356 92.2873 195.67 93.4856 201.708 94.9603V94.9603ZM180.599 144.043C177.004 150.265 173.318 156.164 169.493 161.649C162.625 162.248 155.667 162.57 148.661 162.57C141.702 162.57 134.742 162.248 127.922 161.694C124.097 156.21 120.363 150.357 116.769 144.181C113.266 138.144 110.086 132.014 107.182 125.839C110.04 119.663 113.266 113.487 116.723 107.45C120.318 101.229 124.004 95.3291 127.829 89.8447C134.697 89.2455 141.655 88.9229 148.661 88.9229C155.62 88.9229 162.58 89.2455 169.4 89.7986C173.225 95.283 176.959 101.136 180.554 107.312C184.057 113.349 187.236 119.479 190.14 125.655C187.236 131.83 184.057 138.006 180.599 144.043V144.043ZM195.485 138.052C197.905 144.058 200.027 150.18 201.846 156.394C195.808 157.869 189.448 159.114 182.858 160.082C185.116 156.533 187.374 152.892 189.495 149.159C191.615 145.472 193.596 141.739 195.485 138.052ZM148.753 187.227C144.467 182.802 140.181 177.871 135.941 172.479C140.089 172.664 144.329 172.802 148.615 172.802C152.947 172.802 157.233 172.71 161.428 172.479C157.472 177.62 153.24 182.543 148.753 187.227V187.227ZM114.464 160.082C107.92 159.114 101.606 157.915 95.569 156.441C97.2735 150.495 99.3944 144.366 101.79 138.236C103.68 141.923 105.662 145.61 107.827 149.297C109.994 152.984 112.206 156.579 114.464 160.082ZM148.523 64.1742C152.809 68.5984 157.095 73.5299 161.335 78.922C157.187 78.7377 152.947 78.5995 148.661 78.5995C144.329 78.5995 140.043 78.6916 135.849 78.922C139.805 73.7813 144.036 68.8581 148.523 64.1742V64.1742ZM114.418 91.3195C112.16 94.8682 109.902 98.5091 107.782 102.242C105.662 105.929 103.68 109.616 101.79 113.303C99.3709 107.297 97.2485 101.175 95.4309 94.9603C101.468 93.5317 107.827 92.2873 114.418 91.3195V91.3195ZM72.7092 149.021C56.3946 142.061 45.8406 132.937 45.8406 125.7C45.8406 118.465 56.3946 109.294 72.7092 102.381C76.6727 100.675 81.0052 99.1543 85.4757 97.7256C88.1026 106.759 91.5591 116.16 95.8452 125.793C91.6055 135.379 88.1943 144.734 85.6138 153.722C81.0516 152.293 76.7191 150.726 72.7092 149.021ZM97.5044 214.879C91.2365 211.285 88.5169 197.597 90.6378 179.991C91.1448 175.659 91.9734 171.096 92.9875 166.441C102.021 168.654 111.884 170.359 122.253 171.465C128.475 179.991 134.927 187.733 141.426 194.508C126.401 208.473 112.298 216.123 102.712 216.123C100.638 216.078 98.8874 215.662 97.5044 214.879V214.879ZM206.824 179.761C208.989 197.366 206.317 211.054 200.094 214.695C198.712 215.524 196.915 215.893 194.794 215.893C185.254 215.893 171.106 208.289 156.081 194.417C162.533 187.642 168.986 179.945 175.115 171.419C185.531 170.313 195.394 168.607 204.427 166.349C205.487 171.004 206.317 175.475 206.824 179.761ZM224.567 149.021C220.603 150.726 216.271 152.247 211.8 153.676C209.173 144.643 205.717 135.241 201.431 125.608C205.671 116.022 209.082 106.667 211.662 97.6795C216.225 99.1082 220.557 100.675 224.613 102.381C240.928 109.339 251.482 118.465 251.482 125.7C251.435 132.937 240.881 142.108 224.567 149.021V149.021Z" fill="#61DAFB"/>
</g>
<g filter="url(#filter1_d_304_71)">
<path d="M148.615 146.763C160.248 146.763 169.677 137.334 169.677 125.701C169.677 114.069 160.248 104.639 148.615 104.639C136.983 104.639 127.553 114.069 127.553 125.701C127.553 137.334 136.983 146.763 148.615 146.763V146.763ZM45.8762 262.619H38.9235V274.593H35V244.994H44.7987C48.1327 244.994 50.6942 245.753 52.4832 247.271C54.2857 248.788 55.187 250.998 55.187 253.898C55.187 255.741 54.6856 257.347 53.6826 258.716C52.6933 260.085 51.3109 261.108 49.5355 261.785L56.4881 274.349V274.593H52.3002L45.8762 262.619ZM38.9235 259.427H44.9207C46.8588 259.427 48.397 258.926 49.5355 257.923C50.6874 256.92 51.2634 255.578 51.2634 253.898C51.2634 252.068 50.7145 250.666 49.6168 249.69C48.5325 248.714 46.9604 248.219 44.9003 248.206H38.9235V259.427ZM69.2146 275C66.2326 275 63.8066 274.024 61.9363 272.072C60.066 270.107 59.1309 267.484 59.1309 264.205V263.514C59.1309 261.332 59.5442 259.387 60.3709 257.68C61.2112 255.958 62.3768 254.616 63.8676 253.654C65.372 252.678 66.9983 252.19 68.7467 252.19C71.6065 252.19 73.8295 253.132 75.4144 255.016C77.0005 256.9 77.793 259.596 77.793 263.107V264.672H62.8918C62.946 266.841 63.5763 268.596 64.7824 269.938C66.0022 271.265 67.5472 271.93 69.4176 271.93C70.746 271.93 71.8704 271.659 72.7917 271.117C73.714 270.575 74.5199 269.857 75.2114 268.962L77.5085 270.751C75.6649 273.583 72.9009 275 69.2146 275V275ZM68.7467 255.281C67.2287 255.281 65.9548 255.836 64.9247 256.947C63.8947 258.045 63.2577 259.59 63.0138 261.582H74.0325V261.298C73.9243 259.387 73.409 257.909 72.4877 256.866C71.5653 255.809 70.3184 255.281 68.7467 255.281V255.281ZM95.7442 274.593C95.5268 274.159 95.3505 273.387 95.2155 272.275C93.4667 274.091 91.3798 275 88.9539 275C86.7856 275 85.0038 274.39 83.6074 273.17C82.2254 271.936 81.5339 270.378 81.5339 268.494C81.5339 266.204 82.4016 264.429 84.136 263.168C85.8839 261.894 88.3376 261.257 91.4952 261.257H95.1547V259.53C95.1547 258.215 94.7611 257.171 93.9758 256.399C93.1895 255.612 92.0301 255.22 90.4987 255.22C89.1569 255.22 88.0326 255.558 87.1246 256.236C86.2167 256.913 85.7623 257.733 85.7623 258.696H81.9811C81.9811 257.598 82.3676 256.541 83.1395 255.524C83.9258 254.494 84.9831 253.681 86.3115 253.084C87.6533 252.489 89.1229 252.19 90.7223 252.19C93.2575 252.19 95.2423 252.827 96.6789 254.102C98.1155 255.362 98.8606 257.104 98.9152 259.325V269.45C98.9152 271.47 99.1729 273.075 99.6881 274.267V274.593H95.7442ZM89.5032 271.727C90.6821 271.727 91.8003 271.422 92.8576 270.812C93.9139 270.202 94.6796 269.409 95.1547 268.433V263.921H92.2063C87.5987 263.921 85.2944 265.269 85.2944 267.966C85.2944 269.145 85.6881 270.067 86.4733 270.731C87.2597 271.394 88.2696 271.727 89.5032 271.727V271.727ZM113.634 271.93C114.975 271.93 116.148 271.523 117.151 270.71C118.154 269.897 118.709 268.881 118.817 267.661H122.376C122.308 268.921 121.874 270.12 121.074 271.259C120.275 272.398 119.204 273.306 117.862 273.983C116.534 274.661 115.125 275 113.634 275C110.639 275 108.253 274.004 106.477 272.012C104.716 270.005 103.835 267.268 103.835 263.798V263.168C103.835 261.027 104.228 259.122 105.014 257.456C105.8 255.789 106.925 254.494 108.389 253.573C109.866 252.651 111.608 252.19 113.613 252.19C116.08 252.19 118.127 252.929 119.753 254.407C121.393 255.883 122.267 257.801 122.376 260.159H118.817C118.709 258.736 118.167 257.57 117.191 256.662C116.23 255.741 115.036 255.281 113.613 255.281C111.702 255.281 110.218 255.971 109.161 257.354C108.118 258.723 107.596 260.708 107.596 263.311V264.022C107.596 266.556 108.118 268.508 109.161 269.876C110.205 271.246 111.696 271.93 113.634 271.93V271.93ZM131.706 247.271V252.597H135.813V255.504H131.706V269.145C131.706 270.026 131.89 270.689 132.256 271.137C132.622 271.57 133.245 271.788 134.126 271.788C134.559 271.788 135.156 271.707 135.914 271.544V274.593C134.925 274.864 133.963 275 133.028 275C131.348 275 130.08 274.491 129.226 273.475C128.373 272.459 127.946 271.015 127.946 269.145V255.504H123.94V252.597H127.946V247.271H131.706ZM173.89 274.593H169.966L155.065 251.784V274.593H151.142V244.994H155.065L170.007 267.905V244.994H173.89V274.593ZM193.813 274.593C193.595 274.159 193.419 273.387 193.284 272.275C191.535 274.091 189.448 275 187.023 275C184.854 275 183.071 274.39 181.676 273.17C180.294 271.936 179.603 270.378 179.603 268.494C179.603 266.204 180.469 264.429 182.205 263.168C183.952 261.894 186.406 261.257 189.564 261.257H193.223V259.53C193.223 258.215 192.83 257.171 192.043 256.399C191.258 255.612 190.099 255.22 188.567 255.22C187.226 255.22 186.101 255.558 185.193 256.236C184.285 256.913 183.831 257.733 183.831 258.696H180.05C180.05 257.598 180.436 256.541 181.208 255.524C181.994 254.494 183.052 253.681 184.38 253.084C185.722 252.489 187.192 252.19 188.791 252.19C191.325 252.19 193.311 252.827 194.748 254.102C196.184 255.362 196.929 257.104 196.984 259.325V269.45C196.984 271.47 197.241 273.075 197.757 274.267V274.593H193.813ZM187.572 271.727C188.751 271.727 189.869 271.422 190.926 270.812C191.983 270.202 192.748 269.409 193.223 268.433V263.921H190.275C185.667 263.921 183.363 265.269 183.363 267.966C183.363 269.145 183.757 270.067 184.542 270.731C185.328 271.394 186.338 271.727 187.572 271.727ZM207.982 247.271V252.597H212.089V255.504H207.982V269.145C207.982 270.026 208.165 270.689 208.531 271.137C208.897 271.57 209.521 271.788 210.402 271.788C210.835 271.788 211.431 271.707 212.191 271.544V274.593C211.2 274.864 210.239 275 209.303 275C207.623 275 206.356 274.491 205.501 273.475C204.648 272.459 204.221 271.015 204.221 269.145V255.504H200.217V252.597H204.221V247.271H207.982ZM220.587 274.593H216.825V252.597H220.587V274.593ZM216.52 246.762C216.52 246.153 216.704 245.638 217.069 245.217C217.449 244.797 218.004 244.587 218.736 244.587C219.469 244.587 220.024 244.797 220.403 245.217C220.782 245.638 220.972 246.153 220.972 246.762C220.972 247.372 220.782 247.88 220.403 248.287C220.024 248.693 219.469 248.897 218.736 248.897C218.004 248.897 217.449 248.693 217.069 248.287C216.704 247.88 216.52 247.372 216.52 246.762ZM233.882 269.491L239.329 252.597H243.172L235.284 274.593H232.417L224.449 252.597H228.291L233.882 269.491ZM255.634 275C252.652 275 250.226 274.024 248.356 272.072C246.486 270.107 245.551 267.484 245.551 264.205V263.514C245.551 261.332 245.964 259.387 246.791 257.68C247.63 255.958 248.796 254.616 250.287 253.654C251.792 252.678 253.418 252.19 255.166 252.19C258.026 252.19 260.249 253.132 261.835 255.016C263.42 256.9 264.213 259.596 264.213 263.107V264.672H249.311C249.366 266.841 249.996 268.596 251.202 269.938C252.422 271.265 253.967 271.93 255.837 271.93C257.165 271.93 258.291 271.659 259.212 271.117C260.133 270.575 260.94 269.857 261.632 268.962L263.929 270.751C262.085 273.583 259.32 275 255.634 275V275ZM255.166 255.281C253.649 255.281 252.374 255.836 251.345 256.947C250.314 258.045 249.677 259.59 249.434 261.582H260.452V261.298C260.343 259.387 259.828 257.909 258.907 256.866C257.986 255.809 256.739 255.281 255.166 255.281V255.281Z" fill="#61DAFB"/>
</g>
<defs>
<filter id="filter0_d_304_71" x="31.6093" y="25" width="234.104" height="209.354" filterUnits="userSpaceOnUse" color-interpolation-filters="sRGB">
<feFlood flood-opacity="0" result="BackgroundImageFix"/>
<feColorMatrix in="SourceAlpha" type="matrix" values="0 0 0 0 0 0 0 0 0 0 0 0 0 0 0 0 0 0 127 0" result="hardAlpha"/>
<feOffset dy="4"/>
<feGaussianBlur stdDeviation="2"/>
<feComposite in2="hardAlpha" operator="out"/>
<feColorMatrix type="matrix" values="0 0 0 0 0 0 0 0 0 0 0 0 0 0 0 0 0 0 0.1 0"/>
<feBlend mode="normal" in2="BackgroundImageFix" result="effect1_dropShadow_304_71"/>
<feBlend mode="normal" in="SourceGraphic" in2="effect1_dropShadow_304_71" result="shape"/>
</filter>
<filter id="filter1_d_304_71" x="31" y="104.639" width="237.213" height="178.361" filterUnits="userSpaceOnUse" color-interpolation-filters="sRGB">
<feFlood flood-opacity="0" result="BackgroundImageFix"/>
<feColorMatrix in="SourceAlpha" type="matrix" values="0 0 0 0 0 0 0 0 0 0 0 0 0 0 0 0 0 0 127 0" result="hardAlpha"/>
<feOffset dy="4"/>
<feGaussianBlur stdDeviation="2"/>
<feComposite in2="hardAlpha" operator="out"/>
<feColorMatrix type="matrix" values="0 0 0 0 0 0 0 0 0 0 0 0 0 0 0 0 0 0 0.1 0"/>
<feBlend mode="normal" in2="BackgroundImageFix" result="effect1_dropShadow_304_71"/>
<feBlend mode="normal" in="SourceGraphic" in2="effect1_dropShadow_304_71" result="shape"/>
</filter>
</defs>
</svg>
