<svg width="311" height="130" viewBox="0 0 311 130" fill="none" xmlns="http://www.w3.org/2000/svg">
<rect x="1" y="1" width="309" height="128" rx="19" fill="black" stroke="#A6A6A6" stroke-width="2"/>
<path d="M66 21C41.1375 21 21 41.1375 21 66C21 85.9125 33.8812 102.731 51.7687 108.694C54.0187 109.088 54.8625 107.738 54.8625 106.556C54.8625 105.488 54.8063 101.944 54.8063 98.175C43.5 100.256 40.575 95.4187 39.675 92.8875C39.1687 91.5937 36.975 87.6 35.0625 86.5312C33.4875 85.6875 31.2375 83.6062 35.0063 83.55C38.55 83.4937 41.0813 86.8125 41.925 88.1625C45.975 94.9687 52.4438 93.0563 55.0313 91.875C55.425 88.95 56.6062 86.9812 57.9 85.8562C47.8875 84.7312 37.425 80.85 37.425 63.6375C37.425 58.7437 39.1688 54.6937 42.0375 51.5437C41.5875 50.4187 40.0125 45.8062 42.4875 39.6187C42.4875 39.6187 46.2563 38.4375 54.8625 44.2313C58.4625 43.2188 62.2875 42.7125 66.1125 42.7125C69.9375 42.7125 73.7625 43.2188 77.3625 44.2313C85.9688 38.3813 89.7375 39.6187 89.7375 39.6187C92.2125 45.8062 90.6375 50.4187 90.1875 51.5437C93.0563 54.6937 94.8 58.6875 94.8 63.6375C94.8 80.9062 84.2813 84.7312 74.2688 85.8562C75.9 87.2625 77.3063 89.9625 77.3063 94.1813C77.3063 100.2 77.25 105.038 77.25 106.556C77.25 107.738 78.0938 109.144 80.3438 108.694C89.2775 105.679 97.0407 99.9375 102.54 92.2786C108.04 84.6197 110.998 75.4288 111 66C111 41.1375 90.8625 21 66 21Z" fill="white"/>
<path d="M151.693 33.0117L144.516 53H142.178L135 33.0117H137.434L142.109 46.1777C142.301 46.7064 142.469 47.2122 142.615 47.6953C142.77 48.1784 142.907 48.6432 143.025 49.0898C143.144 49.5365 143.249 49.9694 143.34 50.3887C143.431 49.9694 143.536 49.5365 143.654 49.0898C143.773 48.6341 143.91 48.1647 144.064 47.6816C144.219 47.1895 144.393 46.6745 144.584 46.1367L149.232 33.0117H151.693ZM156.369 38.0156V53H154.1V38.0156H156.369ZM155.262 32.4102C155.635 32.4102 155.954 32.5332 156.219 32.7793C156.492 33.0163 156.629 33.39 156.629 33.9004C156.629 34.4017 156.492 34.7754 156.219 35.0215C155.954 35.2676 155.635 35.3906 155.262 35.3906C154.87 35.3906 154.542 35.2676 154.277 35.0215C154.022 34.7754 153.895 34.4017 153.895 33.9004C153.895 33.39 154.022 33.0163 154.277 32.7793C154.542 32.5332 154.87 32.4102 155.262 32.4102ZM166.951 37.7422C168.227 37.7422 169.321 38.0247 170.232 38.5898C171.144 39.1549 171.841 39.9479 172.324 40.9688C172.807 41.9805 173.049 43.1654 173.049 44.5234V45.9316H162.699C162.727 47.6908 163.164 49.0306 164.012 49.9512C164.859 50.8717 166.053 51.332 167.594 51.332C168.542 51.332 169.38 51.2454 170.109 51.0723C170.839 50.8991 171.595 50.6439 172.379 50.3066V52.3027C171.622 52.64 170.87 52.8861 170.123 53.041C169.385 53.196 168.51 53.2734 167.498 53.2734C166.058 53.2734 164.8 52.9818 163.725 52.3984C162.658 51.806 161.829 50.9401 161.236 49.8008C160.644 48.6615 160.348 47.2669 160.348 45.6172C160.348 44.0039 160.617 42.6094 161.154 41.4336C161.701 40.2487 162.467 39.3372 163.451 38.6992C164.445 38.0612 165.611 37.7422 166.951 37.7422ZM166.924 39.6016C165.712 39.6016 164.745 39.998 164.025 40.791C163.305 41.584 162.877 42.6914 162.74 44.1133H170.67C170.661 43.2201 170.52 42.4362 170.246 41.7617C169.982 41.0781 169.576 40.5495 169.029 40.1758C168.482 39.793 167.781 39.6016 166.924 39.6016ZM189.1 52.9727L186.434 44.25C186.315 43.8763 186.201 43.5117 186.092 43.1562C185.992 42.7917 185.896 42.4453 185.805 42.1172C185.723 41.7799 185.645 41.4701 185.572 41.1875C185.508 40.8958 185.454 40.6452 185.408 40.4355H185.312C185.276 40.6452 185.226 40.8958 185.162 41.1875C185.098 41.4701 185.021 41.7799 184.93 42.1172C184.848 42.4544 184.757 42.8099 184.656 43.1836C184.556 43.5482 184.442 43.9173 184.314 44.291L181.525 52.9727H178.969L174.84 37.9883H177.191L179.352 46.2598C179.497 46.8066 179.634 47.349 179.762 47.8867C179.898 48.4154 180.012 48.9167 180.104 49.3906C180.204 49.8555 180.277 50.2611 180.322 50.6074H180.432C180.486 50.3796 180.546 50.1061 180.609 49.7871C180.682 49.4681 180.76 49.1309 180.842 48.7754C180.933 48.4108 181.029 48.0508 181.129 47.6953C181.229 47.3307 181.329 46.9889 181.43 46.6699L184.191 37.9883H186.639L189.305 46.6562C189.441 47.0938 189.574 47.5495 189.701 48.0234C189.838 48.4974 189.961 48.9577 190.07 49.4043C190.18 49.8418 190.257 50.2337 190.303 50.5801H190.412C190.449 50.2702 190.517 49.8874 190.617 49.4316C190.717 48.9759 190.831 48.4746 190.959 47.9277C191.096 47.3809 191.237 46.8249 191.383 46.2598L193.57 37.9883H195.881L191.738 52.9727H189.1ZM218.809 45.4805C218.809 46.7109 218.649 47.8092 218.33 48.7754C218.011 49.7415 217.551 50.5573 216.949 51.2227C216.348 51.888 215.618 52.3984 214.762 52.7539C213.914 53.1003 212.952 53.2734 211.877 53.2734C210.874 53.2734 209.954 53.1003 209.115 52.7539C208.286 52.3984 207.566 51.888 206.955 51.2227C206.354 50.5573 205.884 49.7415 205.547 48.7754C205.219 47.8092 205.055 46.7109 205.055 45.4805C205.055 43.8398 205.333 42.4453 205.889 41.2969C206.445 40.1393 207.238 39.2598 208.268 38.6582C209.307 38.0475 210.542 37.7422 211.973 37.7422C213.34 37.7422 214.534 38.0475 215.555 38.6582C216.585 39.2689 217.382 40.153 217.947 41.3105C218.521 42.459 218.809 43.849 218.809 45.4805ZM207.406 45.4805C207.406 46.6836 207.566 47.7272 207.885 48.6113C208.204 49.4954 208.696 50.179 209.361 50.6621C210.027 51.1452 210.883 51.3867 211.932 51.3867C212.971 51.3867 213.823 51.1452 214.488 50.6621C215.163 50.179 215.66 49.4954 215.979 48.6113C216.298 47.7272 216.457 46.6836 216.457 45.4805C216.457 44.2865 216.298 43.2565 215.979 42.3906C215.66 41.5156 215.167 40.8411 214.502 40.3672C213.837 39.8932 212.975 39.6562 211.918 39.6562C210.359 39.6562 209.215 40.1712 208.486 41.2012C207.766 42.2311 207.406 43.6576 207.406 45.4805ZM229.828 37.7422C231.605 37.7422 232.95 38.1797 233.861 39.0547C234.773 39.9206 235.229 41.3151 235.229 43.2383V53H232.986V43.3887C232.986 42.14 232.699 41.2057 232.125 40.5859C231.56 39.9661 230.689 39.6562 229.514 39.6562C227.855 39.6562 226.688 40.1257 226.014 41.0645C225.339 42.0033 225.002 43.3659 225.002 45.1523V53H222.732V38.0156H224.564L224.906 40.1758H225.029C225.348 39.6471 225.754 39.2051 226.246 38.8496C226.738 38.485 227.29 38.2116 227.9 38.0293C228.511 37.8379 229.154 37.7422 229.828 37.7422ZM150.877 81.3613H163.338V97.6465C161.691 98.1908 159.979 98.6276 158.203 98.957C156.427 99.2721 154.415 99.4297 152.166 99.4297C149.044 99.4297 146.394 98.8138 144.217 97.582C142.04 96.3503 140.385 94.5312 139.254 92.125C138.122 89.7188 137.557 86.7611 137.557 83.252C137.557 79.9577 138.187 77.1074 139.447 74.7012C140.722 72.2949 142.577 70.4329 145.012 69.1152C147.461 67.7975 150.447 67.1387 153.971 67.1387C155.632 67.1387 157.272 67.3177 158.891 67.6758C160.509 68.0339 161.977 68.4993 163.295 69.0723L161.082 74.4004C160.122 73.9134 159.027 73.5052 157.795 73.1758C156.563 72.8464 155.274 72.6816 153.928 72.6816C151.994 72.6816 150.311 73.1257 148.879 74.0137C147.461 74.9017 146.358 76.1478 145.57 77.752C144.797 79.3418 144.41 81.2181 144.41 83.3809C144.41 85.429 144.689 87.248 145.248 88.8379C145.807 90.4134 146.688 91.6523 147.891 92.5547C149.094 93.4427 150.662 93.8867 152.596 93.8867C153.541 93.8867 154.336 93.8438 154.98 93.7578C155.639 93.6576 156.255 93.5573 156.828 93.457V86.9043H150.877V81.3613ZM176.873 74.9805V99H170.32V74.9805H176.873ZM173.607 65.5703C174.581 65.5703 175.419 65.7995 176.121 66.2578C176.823 66.7018 177.174 67.5397 177.174 68.7715C177.174 69.9889 176.823 70.834 176.121 71.3066C175.419 71.765 174.581 71.9941 173.607 71.9941C172.619 71.9941 171.774 71.765 171.072 71.3066C170.385 70.834 170.041 69.9889 170.041 68.7715C170.041 67.5397 170.385 66.7018 171.072 66.2578C171.774 65.7995 172.619 65.5703 173.607 65.5703ZM193.889 94.209C194.605 94.209 195.299 94.1374 195.973 93.9941C196.66 93.8509 197.34 93.6719 198.014 93.457V98.334C197.312 98.6491 196.438 98.9069 195.393 99.1074C194.361 99.3223 193.23 99.4297 191.998 99.4297C190.566 99.4297 189.277 99.2005 188.131 98.7422C186.999 98.2695 186.104 97.4603 185.445 96.3145C184.801 95.1543 184.479 93.543 184.479 91.4805V79.9004H181.342V77.1289L184.951 74.9375L186.842 69.8672H191.031V74.9805H197.756V79.9004H191.031V91.4805C191.031 92.3971 191.289 93.0846 191.805 93.543C192.335 93.987 193.029 94.209 193.889 94.209ZM229.145 99H222.506V85.4434H210.066V99H203.406V67.5898H210.066V79.9004H222.506V67.5898H229.145V99ZM258.621 74.9805V99H253.594L252.713 95.9277H252.369C251.854 96.7441 251.209 97.4102 250.436 97.9258C249.662 98.4414 248.81 98.821 247.879 99.0645C246.948 99.3079 245.981 99.4297 244.979 99.4297C243.26 99.4297 241.763 99.1289 240.488 98.5273C239.214 97.9115 238.218 96.959 237.502 95.6699C236.8 94.3809 236.449 92.7051 236.449 90.6426V74.9805H243.002V89.0098C243.002 90.7285 243.31 92.0247 243.926 92.8984C244.542 93.7721 245.523 94.209 246.869 94.209C248.201 94.209 249.247 93.9082 250.006 93.3066C250.765 92.6908 251.295 91.7956 251.596 90.6211C251.911 89.4323 252.068 87.9857 252.068 86.2812V74.9805H258.621ZM272.049 65.5703V73.3477C272.049 74.25 272.02 75.1452 271.963 76.0332C271.92 76.9212 271.863 77.6087 271.791 78.0957H272.049C272.679 77.1074 273.538 76.2695 274.627 75.582C275.715 74.8802 277.126 74.5293 278.859 74.5293C281.552 74.5293 283.736 75.582 285.412 77.6875C287.088 79.793 287.926 82.8796 287.926 86.9473C287.926 89.6829 287.539 91.9818 286.766 93.8438C285.992 95.6914 284.911 97.0879 283.521 98.0332C282.132 98.9642 280.521 99.4297 278.688 99.4297C276.926 99.4297 275.536 99.1146 274.52 98.4844C273.503 97.8542 272.679 97.1452 272.049 96.3574H271.598L270.502 99H265.496V65.5703H272.049ZM276.754 79.7715C275.608 79.7715 274.699 80.0078 274.025 80.4805C273.352 80.9531 272.858 81.6621 272.543 82.6074C272.242 83.5527 272.077 84.7487 272.049 86.1953V86.9043C272.049 89.2389 272.393 91.0293 273.08 92.2754C273.768 93.5072 275.021 94.123 276.84 94.123C278.186 94.123 279.253 93.5 280.041 92.2539C280.843 91.0078 281.244 89.2103 281.244 86.8613C281.244 84.5124 280.843 82.7435 280.041 81.5547C279.239 80.3659 278.143 79.7715 276.754 79.7715Z" fill="white"/>
</svg>
