<svg width="300" height="300" viewBox="0 0 300 300" fill="none" xmlns="http://www.w3.org/2000/svg">
<rect width="300" height="300" rx="60" fill="url(#paint0_linear_501_44)"/>
<path d="M61.1836 109.254C63.9727 109.254 66.7031 109.57 69.375 110.203C72.0469 110.836 74.9297 111.914 78.0234 113.438V122.367C75 120.633 72.1992 119.379 69.6211 118.605C67.0664 117.832 64.3945 117.445 61.6055 117.445C58.1133 117.445 54.9609 118.172 52.1484 119.625C49.3359 121.055 47.1445 123.082 45.5742 125.707C44.0273 128.332 43.2539 131.25 43.2539 134.461C43.2539 137.742 44.0273 140.684 45.5742 143.285C47.1211 145.887 49.3008 147.902 52.1133 149.332C54.9258 150.738 58.0898 151.441 61.6055 151.441C64.3008 151.441 66.8672 151.055 69.3047 150.281C71.7656 149.508 74.8594 148.113 78.5859 146.098V155.027C75.3984 156.691 72.4688 157.875 69.7969 158.578C67.125 159.281 64.0078 159.633 60.4453 159.633C55.2656 159.633 50.6367 158.602 46.5586 156.539C42.4805 154.477 39.2695 151.512 36.9258 147.645C34.6055 143.754 33.4453 139.5 33.4453 134.883C33.4453 129.938 34.6406 125.496 37.0312 121.559C39.4453 117.621 42.75 114.586 46.9453 112.453C51.1641 110.32 55.9102 109.254 61.1836 109.254ZM101.895 109.254C106.676 109.254 111.281 110.449 115.711 112.84V121.277C110.625 118.207 106.113 116.672 102.176 116.672C99.7852 116.672 97.9102 117.141 96.5508 118.078C95.2148 118.992 94.5469 120.223 94.5469 121.77C94.5469 123.621 95.8008 125.332 98.3086 126.902C99.0117 127.371 101.719 128.684 106.43 130.84C110.461 132.738 113.367 134.848 115.148 137.168C116.93 139.488 117.82 142.277 117.82 145.535C117.82 149.754 116.297 153.164 113.25 155.766C110.227 158.344 106.301 159.633 101.473 159.633C98.332 159.633 95.625 159.293 93.3516 158.613C91.1016 157.91 88.5703 156.715 85.7578 155.027V145.676C91.0078 150.035 95.9531 152.215 100.594 152.215C102.914 152.215 104.789 151.711 106.219 150.703C107.648 149.695 108.363 148.359 108.363 146.695C108.363 144.422 107.121 142.57 104.637 141.141C102.574 140.016 99.9141 138.668 96.6562 137.098C92.7891 135.34 89.8945 133.289 87.9727 130.945C86.0742 128.602 85.125 125.883 85.125 122.789C85.125 118.664 86.6602 115.383 89.7305 112.945C92.8008 110.484 96.8555 109.254 101.895 109.254ZM151.746 109.887V118.184H136.172V128.766L137.086 128.695H137.824C140.824 128.695 143.543 129.352 145.98 130.664C148.418 131.953 150.316 133.77 151.676 136.113C153.059 138.457 153.75 141.094 153.75 144.023C153.75 148.641 152.191 152.402 149.074 155.309C145.98 158.191 141.902 159.633 136.84 159.633C132.34 159.633 128.355 158.707 124.887 156.855V148.629C128.543 150.879 132.047 152.004 135.398 152.004C138.023 152.004 140.215 151.277 141.973 149.824C143.73 148.348 144.609 146.484 144.609 144.234C144.609 141.703 143.602 139.734 141.586 138.328C139.57 136.898 136.828 136.184 133.359 136.184C131.719 136.184 129.902 136.395 127.91 136.816V109.887H151.746ZM189.785 109.887V118.184H174.211V128.766L175.125 128.695H175.863C178.863 128.695 181.582 129.352 184.02 130.664C186.457 131.953 188.355 133.77 189.715 136.113C191.098 138.457 191.789 141.094 191.789 144.023C191.789 148.641 190.23 152.402 187.113 155.309C184.02 158.191 179.941 159.633 174.879 159.633C170.379 159.633 166.395 158.707 162.926 156.855V148.629C166.582 150.879 170.086 152.004 173.438 152.004C176.062 152.004 178.254 151.277 180.012 149.824C181.77 148.348 182.648 146.484 182.648 144.234C182.648 141.703 181.641 139.734 179.625 138.328C177.609 136.898 174.867 136.184 171.398 136.184C169.758 136.184 167.941 136.395 165.949 136.816V109.887H189.785ZM215.59 109.254C218.684 109.254 221.461 109.98 223.922 111.434C226.383 112.887 228.281 114.938 229.617 117.586C230.953 120.211 231.621 123.234 231.621 126.656C231.621 131.812 230.051 137.379 226.91 143.355C223.793 149.332 219.633 154.758 214.43 159.633H203.707C206.496 157.219 209.449 153.938 212.566 149.789C215.684 145.617 217.887 141.949 219.176 138.785C217.418 139.535 215.543 139.91 213.551 139.91C209.66 139.91 206.438 138.527 203.883 135.762C201.352 132.973 200.086 129.41 200.086 125.074C200.086 122.215 200.754 119.578 202.09 117.164C203.426 114.727 205.289 112.805 207.68 111.398C210.07 109.969 212.707 109.254 215.59 109.254ZM209.016 124.934C209.016 127.113 209.637 128.906 210.879 130.312C212.121 131.719 213.762 132.422 215.801 132.422C217.723 132.422 219.316 131.719 220.582 130.312C221.848 128.883 222.48 127.184 222.48 125.215C222.48 122.871 221.836 120.973 220.547 119.52C219.281 118.043 217.629 117.305 215.59 117.305C213.621 117.305 212.027 118.008 210.809 119.414C209.613 120.82 209.016 122.66 209.016 124.934Z" fill="black"/>
<path d="M56.5234 208.672V212.969C53.6589 214.531 50.3516 215.312 46.6016 215.312C43.5547 215.312 40.9701 214.701 38.8477 213.477C36.7253 212.253 35.0456 210.566 33.8086 208.418C32.5716 206.27 31.9531 203.945 31.9531 201.445C31.9531 197.474 33.3659 194.134 36.1914 191.426C39.0299 188.717 42.526 187.363 46.6797 187.363C49.5443 187.363 52.7279 188.112 56.2305 189.609V193.809C53.0404 191.986 49.9219 191.074 46.875 191.074C43.75 191.074 41.1523 192.064 39.082 194.043C37.0247 196.009 35.9961 198.477 35.9961 201.445C35.9961 204.44 37.0117 206.901 39.043 208.828C41.0742 210.755 43.6719 211.719 46.8359 211.719C50.1432 211.719 53.3724 210.703 56.5234 208.672ZM69.4336 196.992C72.168 196.992 74.4401 197.878 76.25 199.648C78.0599 201.406 78.9648 203.62 78.9648 206.289C78.9648 208.88 78.0469 211.035 76.2109 212.754C74.375 214.46 72.0638 215.312 69.2773 215.312C66.582 215.312 64.3294 214.447 62.5195 212.715C60.7096 210.97 59.8047 208.796 59.8047 206.191C59.8047 203.561 60.7161 201.374 62.5391 199.629C64.375 197.871 66.6732 196.992 69.4336 196.992ZM69.2383 200.195C67.5326 200.195 66.1328 200.755 65.0391 201.875C63.9453 202.995 63.3984 204.421 63.3984 206.152C63.3984 207.871 63.9583 209.277 65.0781 210.371C66.1979 211.452 67.6367 211.992 69.3945 211.992C71.1393 211.992 72.5651 211.445 73.6719 210.352C74.7917 209.245 75.3516 207.832 75.3516 206.113C75.3516 204.408 74.7721 202.995 73.6133 201.875C72.4544 200.755 70.9961 200.195 69.2383 200.195ZM97.6367 201.953V215H94.0625V205C94.0625 203.008 93.7956 201.621 93.2617 200.84C92.7279 200.046 91.7969 199.648 90.4688 199.648C89.7266 199.648 89.043 199.818 88.418 200.156C87.806 200.495 87.1029 201.094 86.3086 201.953V215H82.7539V197.031H86.3086V199.395C88.1185 197.585 89.8893 196.68 91.6211 196.68C93.8997 196.68 95.6641 197.76 96.9141 199.922C98.8151 197.734 100.801 196.641 102.871 196.641C104.616 196.641 106.048 197.279 107.168 198.555C108.301 199.831 108.867 201.777 108.867 204.395V215H105.312V204.355C105.312 202.858 105.007 201.712 104.395 200.918C103.783 200.124 102.904 199.727 101.758 199.727C100.286 199.727 98.9128 200.469 97.6367 201.953ZM113.535 224.16V197.031H119.766C122.956 197.031 125.436 197.826 127.207 199.414C128.991 201.003 129.883 203.223 129.883 206.074C129.883 208.77 129.043 210.983 127.363 212.715C125.697 214.447 123.568 215.312 120.977 215.312C119.831 215.312 118.561 215.059 117.168 214.551V224.16H113.535ZM119.688 200.352H117.168V211.406C118.262 211.966 119.408 212.246 120.605 212.246C122.272 212.246 123.633 211.667 124.688 210.508C125.755 209.349 126.289 207.858 126.289 206.035C126.289 204.863 126.035 203.828 125.527 202.93C125.033 202.031 124.349 201.38 123.477 200.977C122.617 200.56 121.354 200.352 119.688 200.352ZM145.215 215V212.715C144.46 213.535 143.594 214.173 142.617 214.629C141.654 215.085 140.69 215.312 139.727 215.312C138.594 215.312 137.546 215.033 136.582 214.473C135.632 213.9 134.909 213.132 134.414 212.168C133.932 211.191 133.691 209.577 133.691 207.324V197.031H137.246V207.285C137.246 209.173 137.513 210.495 138.047 211.25C138.594 211.992 139.544 212.363 140.898 212.363C142.591 212.363 144.03 211.536 145.215 209.883V197.031H148.77V215H145.215ZM151.25 199.883L157.93 193.32V197.031H163.613V200.234H157.93V209.043C157.93 211.1 158.783 212.129 160.488 212.129C161.764 212.129 163.112 211.699 164.531 210.84V214.16C163.164 214.928 161.673 215.312 160.059 215.312C158.431 215.312 157.077 214.837 155.996 213.887C155.658 213.6 155.378 213.281 155.156 212.93C154.935 212.565 154.746 212.096 154.59 211.523C154.447 210.938 154.375 209.831 154.375 208.203V200.234H151.25V199.883ZM182.402 206.328H169.766C169.857 208.047 170.43 209.414 171.484 210.43C172.552 211.445 173.926 211.953 175.605 211.953C177.949 211.953 180.111 211.224 182.09 209.766V213.242C180.996 213.971 179.909 214.492 178.828 214.805C177.76 215.117 176.504 215.273 175.059 215.273C173.079 215.273 171.478 214.863 170.254 214.043C169.03 213.223 168.047 212.122 167.305 210.742C166.576 209.349 166.211 207.741 166.211 205.918C166.211 203.184 166.986 200.964 168.535 199.258C170.085 197.539 172.096 196.68 174.57 196.68C176.953 196.68 178.854 197.513 180.273 199.18C181.693 200.846 182.402 203.079 182.402 205.879V206.328ZM169.844 204.199H178.887C178.796 202.78 178.372 201.686 177.617 200.918C176.862 200.15 175.846 199.766 174.57 199.766C173.294 199.766 172.246 200.15 171.426 200.918C170.618 201.686 170.091 202.78 169.844 204.199ZM190.078 197.031V201.152L190.273 200.84C191.992 198.066 193.711 196.68 195.43 196.68C196.771 196.68 198.171 197.357 199.629 198.711L197.754 201.836C196.517 200.664 195.371 200.078 194.316 200.078C193.171 200.078 192.174 200.625 191.328 201.719C190.495 202.812 190.078 204.108 190.078 205.605V215H186.504V197.031H190.078ZM47.7539 247.562H56.9141V259.125C53.5547 260.583 50.2214 261.312 46.9141 261.312C42.3958 261.312 38.7826 259.997 36.0742 257.367C33.3789 254.724 32.0312 251.469 32.0312 247.602C32.0312 243.526 33.431 240.134 36.2305 237.426C39.0299 234.717 42.5391 233.363 46.7578 233.363C48.2943 233.363 49.7526 233.533 51.1328 233.871C52.513 234.197 54.2578 234.802 56.3672 235.688V239.672C53.112 237.784 49.8828 236.84 46.6797 236.84C43.6979 236.84 41.1849 237.855 39.1406 239.887C37.0964 241.918 36.0742 244.411 36.0742 247.367C36.0742 250.466 37.0964 252.999 39.1406 254.965C41.1849 256.931 43.8151 257.914 47.0312 257.914C48.5938 257.914 50.4622 257.556 52.6367 256.84L53.0078 256.723V251.039H47.7539V247.562ZM65.9375 243.031V247.152L66.1328 246.84C67.8516 244.066 69.5703 242.68 71.2891 242.68C72.6302 242.68 74.0299 243.357 75.4883 244.711L73.6133 247.836C72.3763 246.664 71.2305 246.078 70.1758 246.078C69.0299 246.078 68.0339 246.625 67.1875 247.719C66.3542 248.812 65.9375 250.108 65.9375 251.605V261H62.3633V243.031H65.9375ZM89.2773 250.199V257.836C89.2773 258.448 89.4857 258.754 89.9023 258.754C90.332 258.754 91.0026 258.435 91.9141 257.797V259.965C91.1068 260.486 90.4557 260.837 89.9609 261.02C89.4792 261.215 88.9714 261.312 88.4375 261.312C86.9141 261.312 86.0156 260.714 85.7422 259.516C84.2318 260.688 82.6237 261.273 80.918 261.273C79.668 261.273 78.6263 260.863 77.793 260.043C76.9596 259.21 76.543 258.168 76.543 256.918C76.543 255.785 76.9466 254.776 77.7539 253.891C78.5742 252.992 79.7331 252.283 81.2305 251.762L85.7812 250.199V249.242C85.7812 247.081 84.7005 246 82.5391 246C80.599 246 78.7109 247.003 76.875 249.008V245.121C78.2552 243.493 80.2409 242.68 82.832 242.68C84.7721 242.68 86.3281 243.188 87.5 244.203C87.8906 244.529 88.2422 244.965 88.5547 245.512C88.8672 246.046 89.0625 246.586 89.1406 247.133C89.2318 247.667 89.2773 248.689 89.2773 250.199ZM85.7812 257.445V252.113L83.3984 253.031C82.1875 253.513 81.3281 254.001 80.8203 254.496C80.3255 254.978 80.0781 255.583 80.0781 256.312C80.0781 257.055 80.3125 257.66 80.7812 258.129C81.263 258.598 81.8815 258.832 82.6367 258.832C83.7695 258.832 84.8177 258.37 85.7812 257.445ZM94.8242 270.16V243.031H101.055C104.245 243.031 106.725 243.826 108.496 245.414C110.28 247.003 111.172 249.223 111.172 252.074C111.172 254.77 110.332 256.983 108.652 258.715C106.986 260.447 104.857 261.312 102.266 261.312C101.12 261.312 99.8503 261.059 98.457 260.551V270.16H94.8242ZM100.977 246.352H98.457V257.406C99.5508 257.966 100.697 258.246 101.895 258.246C103.561 258.246 104.922 257.667 105.977 256.508C107.044 255.349 107.578 253.858 107.578 252.035C107.578 250.863 107.324 249.828 106.816 248.93C106.322 248.031 105.638 247.38 104.766 246.977C103.906 246.56 102.643 246.352 100.977 246.352ZM114.98 233.715H118.535V245.395C120.02 243.585 121.862 242.68 124.062 242.68C125.26 242.68 126.335 242.979 127.285 243.578C128.236 244.177 128.939 245.004 129.395 246.059C129.863 247.113 130.098 248.682 130.098 250.766V261H126.543V249.887C126.543 248.572 126.217 247.517 125.566 246.723C124.928 245.915 124.082 245.512 123.027 245.512C122.246 245.512 121.51 245.714 120.82 246.117C120.13 246.521 119.368 247.191 118.535 248.129V261H114.98V233.715ZM136.895 235.473C137.48 235.473 137.982 235.674 138.398 236.078C138.815 236.482 139.023 236.977 139.023 237.562C139.023 238.135 138.815 238.63 138.398 239.047C137.982 239.464 137.48 239.672 136.895 239.672C136.348 239.672 135.866 239.464 135.449 239.047C135.033 238.617 134.824 238.122 134.824 237.562C134.824 237.016 135.033 236.534 135.449 236.117C135.866 235.688 136.348 235.473 136.895 235.473ZM135.137 243.031H138.691V261H135.137V243.031ZM157.324 256.801V260.316C155.54 260.98 153.796 261.312 152.09 261.312C149.277 261.312 147.031 260.479 145.352 258.812C143.685 257.146 142.852 254.913 142.852 252.113C142.852 249.288 143.665 247.009 145.293 245.277C146.921 243.546 149.062 242.68 151.719 242.68C152.643 242.68 153.47 242.771 154.199 242.953C154.941 243.122 155.853 243.448 156.934 243.93V247.719C155.137 246.573 153.47 246 151.934 246C150.332 246 149.017 246.566 147.988 247.699C146.96 248.819 146.445 250.251 146.445 251.996C146.445 253.832 146.999 255.29 148.105 256.371C149.225 257.452 150.729 257.992 152.617 257.992C153.984 257.992 155.553 257.595 157.324 256.801ZM160.508 259.711V255.883C161.51 256.586 162.533 257.159 163.574 257.602C164.629 258.031 165.514 258.246 166.23 258.246C166.973 258.246 167.611 258.064 168.145 257.699C168.678 257.335 168.945 256.898 168.945 256.391C168.945 255.87 168.77 255.44 168.418 255.102C168.079 254.75 167.337 254.249 166.191 253.598C163.9 252.322 162.396 251.234 161.68 250.336C160.977 249.424 160.625 248.435 160.625 247.367C160.625 245.987 161.159 244.861 162.227 243.988C163.307 243.116 164.694 242.68 166.387 242.68C168.145 242.68 169.948 243.174 171.797 244.164V247.68C169.688 246.404 167.962 245.766 166.621 245.766C165.931 245.766 165.371 245.915 164.941 246.215C164.525 246.501 164.316 246.885 164.316 247.367C164.316 247.784 164.505 248.181 164.883 248.559C165.273 248.936 165.951 249.392 166.914 249.926L168.184 250.648C171.178 252.341 172.676 254.216 172.676 256.273C172.676 257.745 172.096 258.956 170.938 259.906C169.792 260.844 168.314 261.312 166.504 261.312C165.436 261.312 164.486 261.202 163.652 260.98C162.819 260.746 161.771 260.323 160.508 259.711Z" fill="black"/>
<defs>
<linearGradient id="paint0_linear_501_44" x1="150" y1="0" x2="150" y2="300" gradientUnits="userSpaceOnUse">
<stop stop-color="#EF0000"/>
<stop offset="1" stop-color="#DE75B4"/>
</linearGradient>
</defs>
</svg>
