<svg width="300" height="300" viewBox="0 0 300 300" fill="none" xmlns="http://www.w3.org/2000/svg">
<rect width="300" height="300" rx="60" fill="#75DEC5"/>
<path d="M61.1836 109.254C63.9727 109.254 66.7031 109.57 69.375 110.203C72.0469 110.836 74.9297 111.914 78.0234 113.438V122.367C75 120.633 72.1992 119.379 69.6211 118.605C67.0664 117.832 64.3945 117.445 61.6055 117.445C58.1133 117.445 54.9609 118.172 52.1484 119.625C49.3359 121.055 47.1445 123.082 45.5742 125.707C44.0273 128.332 43.2539 131.25 43.2539 134.461C43.2539 137.742 44.0273 140.684 45.5742 143.285C47.1211 145.887 49.3008 147.902 52.1133 149.332C54.9258 150.738 58.0898 151.441 61.6055 151.441C64.3008 151.441 66.8672 151.055 69.3047 150.281C71.7656 149.508 74.8594 148.113 78.5859 146.098V155.027C75.3984 156.691 72.4688 157.875 69.7969 158.578C67.125 159.281 64.0078 159.633 60.4453 159.633C55.2656 159.633 50.6367 158.602 46.5586 156.539C42.4805 154.477 39.2695 151.512 36.9258 147.645C34.6055 143.754 33.4453 139.5 33.4453 134.883C33.4453 129.938 34.6406 125.496 37.0312 121.559C39.4453 117.621 42.75 114.586 46.9453 112.453C51.1641 110.32 55.9102 109.254 61.1836 109.254ZM101.895 109.254C106.676 109.254 111.281 110.449 115.711 112.84V121.277C110.625 118.207 106.113 116.672 102.176 116.672C99.7852 116.672 97.9102 117.141 96.5508 118.078C95.2148 118.992 94.5469 120.223 94.5469 121.77C94.5469 123.621 95.8008 125.332 98.3086 126.902C99.0117 127.371 101.719 128.684 106.43 130.84C110.461 132.738 113.367 134.848 115.148 137.168C116.93 139.488 117.82 142.277 117.82 145.535C117.82 149.754 116.297 153.164 113.25 155.766C110.227 158.344 106.301 159.633 101.473 159.633C98.332 159.633 95.625 159.293 93.3516 158.613C91.1016 157.91 88.5703 156.715 85.7578 155.027V145.676C91.0078 150.035 95.9531 152.215 100.594 152.215C102.914 152.215 104.789 151.711 106.219 150.703C107.648 149.695 108.363 148.359 108.363 146.695C108.363 144.422 107.121 142.57 104.637 141.141C102.574 140.016 99.9141 138.668 96.6562 137.098C92.7891 135.34 89.8945 133.289 87.9727 130.945C86.0742 128.602 85.125 125.883 85.125 122.789C85.125 118.664 86.6602 115.383 89.7305 112.945C92.8008 110.484 96.8555 109.254 101.895 109.254ZM151.746 109.887V118.184H136.172V128.766L137.086 128.695H137.824C140.824 128.695 143.543 129.352 145.98 130.664C148.418 131.953 150.316 133.77 151.676 136.113C153.059 138.457 153.75 141.094 153.75 144.023C153.75 148.641 152.191 152.402 149.074 155.309C145.98 158.191 141.902 159.633 136.84 159.633C132.34 159.633 128.355 158.707 124.887 156.855V148.629C128.543 150.879 132.047 152.004 135.398 152.004C138.023 152.004 140.215 151.277 141.973 149.824C143.73 148.348 144.609 146.484 144.609 144.234C144.609 141.703 143.602 139.734 141.586 138.328C139.57 136.898 136.828 136.184 133.359 136.184C131.719 136.184 129.902 136.395 127.91 136.816V109.887H151.746ZM195.023 109.887V110.168L175.23 159.633L166.934 156.539L182.438 118.324H162.855V109.887H195.023ZM215.871 109.254C220.84 109.254 224.777 111.492 227.684 115.969C230.613 120.445 232.078 126.562 232.078 134.32C232.078 142.148 230.637 148.324 227.754 152.848C224.871 157.371 220.934 159.633 215.941 159.633C210.879 159.633 206.871 157.395 203.918 152.918C200.988 148.418 199.523 142.266 199.523 134.461C199.523 126.68 200.988 120.539 203.918 116.039C206.848 111.516 210.832 109.254 215.871 109.254ZM208.664 134.742C208.664 145.969 211.066 151.582 215.871 151.582C220.559 151.582 222.902 145.676 222.902 133.863C222.902 122.824 220.535 117.305 215.801 117.305C211.043 117.305 208.664 123.117 208.664 134.742Z" fill="black"/>
<path d="M33.0469 187.715H36.9531V215H33.0469V187.715ZM46.0742 197.031V199.316C47.6628 197.559 49.4661 196.68 51.4844 196.68C52.6042 196.68 53.6458 196.973 54.6094 197.559C55.5729 198.132 56.3021 198.926 56.7969 199.941C57.3047 200.944 57.5586 202.539 57.5586 204.727V215H54.0039V204.766C54.0039 202.93 53.724 201.621 53.1641 200.84C52.6042 200.046 51.6667 199.648 50.3516 199.648C48.6719 199.648 47.2461 200.488 46.0742 202.168V215H42.4414V197.031H46.0742ZM60 199.883L66.6797 193.32V197.031H72.3633V200.234H66.6797V209.043C66.6797 211.1 67.5326 212.129 69.2383 212.129C70.5143 212.129 71.862 211.699 73.2812 210.84V214.16C71.9141 214.928 70.4232 215.312 68.8086 215.312C67.181 215.312 65.8268 214.837 64.7461 213.887C64.4076 213.6 64.1276 213.281 63.9062 212.93C63.6849 212.565 63.4961 212.096 63.3398 211.523C63.1966 210.938 63.125 209.831 63.125 208.203V200.234H60V199.883ZM79.6484 197.031V201.152L79.8438 200.84C81.5625 198.066 83.2812 196.68 85 196.68C86.3411 196.68 87.7409 197.357 89.1992 198.711L87.3242 201.836C86.0872 200.664 84.9414 200.078 83.8867 200.078C82.7409 200.078 81.7448 200.625 80.8984 201.719C80.0651 202.812 79.6484 204.108 79.6484 205.605V215H76.0742V197.031H79.6484ZM100.293 196.992C103.027 196.992 105.299 197.878 107.109 199.648C108.919 201.406 109.824 203.62 109.824 206.289C109.824 208.88 108.906 211.035 107.07 212.754C105.234 214.46 102.923 215.312 100.137 215.312C97.4414 215.312 95.1888 214.447 93.3789 212.715C91.569 210.97 90.6641 208.796 90.6641 206.191C90.6641 203.561 91.5755 201.374 93.3984 199.629C95.2344 197.871 97.5326 196.992 100.293 196.992ZM100.098 200.195C98.3919 200.195 96.9922 200.755 95.8984 201.875C94.8047 202.995 94.2578 204.421 94.2578 206.152C94.2578 207.871 94.8177 209.277 95.9375 210.371C97.0573 211.452 98.4961 211.992 100.254 211.992C101.999 211.992 103.424 211.445 104.531 210.352C105.651 209.245 106.211 207.832 106.211 206.113C106.211 204.408 105.632 202.995 104.473 201.875C103.314 200.755 101.855 200.195 100.098 200.195ZM125.762 187.715H129.336V215H121.738C119.082 215 116.96 214.16 115.371 212.48C113.796 210.801 113.008 208.548 113.008 205.723C113.008 203.079 113.835 200.905 115.488 199.199C117.155 197.493 119.277 196.641 121.855 196.641C123.053 196.641 124.355 196.895 125.762 197.402V187.715ZM125.762 211.953V200.566C124.655 200.007 123.535 199.727 122.402 199.727C120.632 199.727 119.219 200.306 118.164 201.465C117.122 202.624 116.602 204.186 116.602 206.152C116.602 208.001 117.057 209.427 117.969 210.43C118.516 211.029 119.095 211.432 119.707 211.641C120.319 211.849 121.419 211.953 123.008 211.953H125.762ZM145.605 215V212.715C144.85 213.535 143.984 214.173 143.008 214.629C142.044 215.085 141.081 215.312 140.117 215.312C138.984 215.312 137.936 215.033 136.973 214.473C136.022 213.9 135.299 213.132 134.805 212.168C134.323 211.191 134.082 209.577 134.082 207.324V197.031H137.637V207.285C137.637 209.173 137.904 210.495 138.438 211.25C138.984 211.992 139.935 212.363 141.289 212.363C142.982 212.363 144.421 211.536 145.605 209.883V197.031H149.16V215H145.605ZM167.637 210.801V214.316C165.853 214.98 164.108 215.312 162.402 215.312C159.59 215.312 157.344 214.479 155.664 212.812C153.997 211.146 153.164 208.913 153.164 206.113C153.164 203.288 153.978 201.009 155.605 199.277C157.233 197.546 159.375 196.68 162.031 196.68C162.956 196.68 163.783 196.771 164.512 196.953C165.254 197.122 166.165 197.448 167.246 197.93V201.719C165.449 200.573 163.783 200 162.246 200C160.645 200 159.329 200.566 158.301 201.699C157.272 202.819 156.758 204.251 156.758 205.996C156.758 207.832 157.311 209.29 158.418 210.371C159.538 211.452 161.042 211.992 162.93 211.992C164.297 211.992 165.866 211.595 167.637 210.801ZM169.18 199.883L175.859 193.32V197.031H181.543V200.234H175.859V209.043C175.859 211.1 176.712 212.129 178.418 212.129C179.694 212.129 181.042 211.699 182.461 210.84V214.16C181.094 214.928 179.603 215.312 177.988 215.312C176.361 215.312 175.007 214.837 173.926 213.887C173.587 213.6 173.307 213.281 173.086 212.93C172.865 212.565 172.676 212.096 172.52 211.523C172.376 210.938 172.305 209.831 172.305 208.203V200.234H169.18V199.883ZM186.855 189.473C187.441 189.473 187.943 189.674 188.359 190.078C188.776 190.482 188.984 190.977 188.984 191.562C188.984 192.135 188.776 192.63 188.359 193.047C187.943 193.464 187.441 193.672 186.855 193.672C186.309 193.672 185.827 193.464 185.41 193.047C184.993 192.617 184.785 192.122 184.785 191.562C184.785 191.016 184.993 190.534 185.41 190.117C185.827 189.688 186.309 189.473 186.855 189.473ZM185.098 197.031H188.652V215H185.098V197.031ZM202.402 196.992C205.137 196.992 207.409 197.878 209.219 199.648C211.029 201.406 211.934 203.62 211.934 206.289C211.934 208.88 211.016 211.035 209.18 212.754C207.344 214.46 205.033 215.312 202.246 215.312C199.551 215.312 197.298 214.447 195.488 212.715C193.678 210.97 192.773 208.796 192.773 206.191C192.773 203.561 193.685 201.374 195.508 199.629C197.344 197.871 199.642 196.992 202.402 196.992ZM202.207 200.195C200.501 200.195 199.102 200.755 198.008 201.875C196.914 202.995 196.367 204.421 196.367 206.152C196.367 207.871 196.927 209.277 198.047 210.371C199.167 211.452 200.605 211.992 202.363 211.992C204.108 211.992 205.534 211.445 206.641 210.352C207.76 209.245 208.32 207.832 208.32 206.113C208.32 204.408 207.741 202.995 206.582 201.875C205.423 200.755 203.965 200.195 202.207 200.195ZM219.434 197.031V199.316C221.022 197.559 222.826 196.68 224.844 196.68C225.964 196.68 227.005 196.973 227.969 197.559C228.932 198.132 229.661 198.926 230.156 199.941C230.664 200.944 230.918 202.539 230.918 204.727V215H227.363V204.766C227.363 202.93 227.083 201.621 226.523 200.84C225.964 200.046 225.026 199.648 223.711 199.648C222.031 199.648 220.605 200.488 219.434 202.168V215H215.801V197.031H219.434ZM30 245.883L36.6797 239.32V243.031H42.3633V246.234H36.6797V255.043C36.6797 257.1 37.5326 258.129 39.2383 258.129C40.5143 258.129 41.862 257.699 43.2812 256.84V260.16C41.9141 260.928 40.4232 261.312 38.8086 261.312C37.181 261.312 35.8268 260.837 34.7461 259.887C34.4076 259.6 34.1276 259.281 33.9062 258.93C33.6849 258.565 33.4961 258.096 33.3398 257.523C33.1966 256.938 33.125 255.831 33.125 254.203V246.234H30V245.883ZM54.4336 242.992C57.168 242.992 59.4401 243.878 61.25 245.648C63.0599 247.406 63.9648 249.62 63.9648 252.289C63.9648 254.88 63.0469 257.035 61.2109 258.754C59.375 260.46 57.0638 261.312 54.2773 261.312C51.582 261.312 49.3294 260.447 47.5195 258.715C45.7096 256.97 44.8047 254.796 44.8047 252.191C44.8047 249.561 45.7161 247.374 47.5391 245.629C49.375 243.871 51.6732 242.992 54.4336 242.992ZM54.2383 246.195C52.5326 246.195 51.1328 246.755 50.0391 247.875C48.9453 248.995 48.3984 250.421 48.3984 252.152C48.3984 253.871 48.9583 255.277 50.0781 256.371C51.1979 257.452 52.6367 257.992 54.3945 257.992C56.1393 257.992 57.5651 257.445 58.6719 256.352C59.7917 255.245 60.3516 253.832 60.3516 252.113C60.3516 250.408 59.7721 248.995 58.6133 247.875C57.4544 246.755 55.9961 246.195 54.2383 246.195ZM98.7695 233.715H102.676V261H98.7695V249.125H83.4375V261H79.5312V233.715H83.4375V245.512H98.7695V233.715ZM132.227 254.672V258.969C129.362 260.531 126.055 261.312 122.305 261.312C119.258 261.312 116.673 260.701 114.551 259.477C112.428 258.253 110.749 256.566 109.512 254.418C108.275 252.27 107.656 249.945 107.656 247.445C107.656 243.474 109.069 240.134 111.895 237.426C114.733 234.717 118.229 233.363 122.383 233.363C125.247 233.363 128.431 234.112 131.934 235.609V239.809C128.743 237.986 125.625 237.074 122.578 237.074C119.453 237.074 116.855 238.064 114.785 240.043C112.728 242.009 111.699 244.477 111.699 247.445C111.699 250.44 112.715 252.901 114.746 254.828C116.777 256.755 119.375 257.719 122.539 257.719C125.846 257.719 129.076 256.703 132.227 254.672ZM137.07 233.715H140.977V261H137.07V233.715Z" fill="black"/>
</svg>
