<svg width="300" height="300" viewBox="0 0 300 300" fill="none" xmlns="http://www.w3.org/2000/svg">
<path d="M0 60C0 26.8629 26.8629 0 60 0H240C273.137 0 300 26.8629 300 60V240C300 273.137 273.137 300 240 300H60C26.8629 300 0 273.137 0 240V60Z" fill="#F7DF1E"/>
<path d="M78.881 250.702L101.839 236.809C106.268 244.661 110.297 251.306 119.961 251.306C129.225 251.306 135.066 247.682 135.066 233.587V137.729H163.258V233.985C163.258 263.185 146.142 276.476 121.17 276.476C98.6172 276.476 85.5257 264.796 78.8805 250.7" fill="black"/>
<path d="M178.571 247.681L201.527 234.39C207.57 244.259 215.423 251.508 229.318 251.508C240.999 251.508 248.448 245.667 248.448 237.612C248.448 227.946 240.796 224.522 227.908 218.885L220.861 215.862C200.521 207.205 187.028 196.331 187.028 173.373C187.028 152.228 203.138 136.117 228.311 136.117C246.234 136.117 259.122 142.361 268.385 158.672L246.434 172.768C241.601 164.11 236.367 160.687 228.312 160.687C220.055 160.687 214.819 165.922 214.819 172.768C214.819 181.226 220.055 184.651 232.137 189.887L239.184 192.907C263.149 203.178 276.641 213.649 276.641 237.209C276.641 262.584 256.705 276.478 229.922 276.478C203.743 276.478 186.827 263.993 178.572 247.681" fill="black"/>
</svg>
