<svg width="1000" height="1000" viewBox="0 0 1000 1000" fill="none" xmlns="http://www.w3.org/2000/svg">
<rect width="1000" height="1000" rx="200" fill="white"/>
<g filter="url(#filter0_d_149_190)">
<path d="M475 114.434C490.47 105.502 509.53 105.502 525 114.434L821.41 285.566C836.88 294.498 846.41 311.004 846.41 328.868V671.132C846.41 688.996 836.88 705.502 821.41 714.434L525 885.566C509.53 894.498 490.47 894.498 475 885.566L178.59 714.434C163.12 705.502 153.59 688.996 153.59 671.133V328.868C153.59 311.004 163.12 294.498 178.59 285.566L475 114.434Z" fill="url(#paint0_linear_149_190)"/>
</g>
<defs>
<filter id="filter0_d_149_190" x="149.59" y="107.735" width="700.82" height="798.53" filterUnits="userSpaceOnUse" color-interpolation-filters="sRGB">
<feFlood flood-opacity="0" result="BackgroundImageFix"/>
<feColorMatrix in="SourceAlpha" type="matrix" values="0 0 0 0 0 0 0 0 0 0 0 0 0 0 0 0 0 0 127 0" result="hardAlpha"/>
<feOffset dy="10"/>
<feGaussianBlur stdDeviation="2"/>
<feComposite in2="hardAlpha" operator="out"/>
<feColorMatrix type="matrix" values="0 0 0 0 0 0 0 0 0 0 0 0 0 0 0 0 0 0 0.25 0"/>
<feBlend mode="normal" in2="BackgroundImageFix" result="effect1_dropShadow_149_190"/>
<feBlend mode="normal" in="SourceGraphic" in2="effect1_dropShadow_149_190" result="shape"/>
</filter>
<linearGradient id="paint0_linear_149_190" x1="148.5" y1="500" x2="845" y2="500" gradientUnits="userSpaceOnUse">
<stop stop-color="#140066"/>
<stop offset="1" stop-color="#007E86"/>
</linearGradient>
</defs>
</svg>
