<svg width="300" height="300" viewBox="0 0 300 300" fill="none" xmlns="http://www.w3.org/2000/svg">
<rect width="300" height="300" rx="60" fill="#53C1DE"/>
<path d="M22.7541 149.75C22.7541 168.964 41.5166 186.902 71.0972 197.012C65.1902 226.75 70.0386 250.718 86.2325 260.058C102.878 269.657 127.676 263.012 151.213 242.438C174.156 262.182 197.344 269.952 213.523 260.586C230.152 250.959 235.21 225.365 229.14 194.699C259.95 184.512 277.184 169.217 277.184 149.75C277.184 130.981 258.387 114.744 229.205 104.698C235.74 72.7644 230.203 49.3776 213.338 39.6524C197.079 30.2768 173.622 38.4486 150.342 58.7089C126.123 37.2042 102.897 30.6385 86.0494 40.3921C69.8062 49.7944 65.1711 74.1984 71.0972 104.487C42.5154 114.452 22.7541 131.056 22.7541 149.75Z" fill="white"/>
<path d="M223.025 114.675C220.681 113.868 218.252 113.104 215.751 112.382C216.162 110.705 216.539 109.049 216.875 107.421C222.381 80.6939 218.781 59.1622 206.487 52.073C194.7 45.2754 175.422 52.363 155.952 69.3068C154.08 70.9361 152.202 72.6612 150.326 74.4691C149.075 73.2729 147.827 72.117 146.582 71.0113C126.177 52.8939 105.724 45.2589 93.4431 52.3686C81.6667 59.1859 78.1792 79.4278 83.1355 104.758C83.6141 107.204 84.1736 109.703 84.8063 112.243C81.9116 113.065 79.1172 113.941 76.4433 114.872C52.5209 123.213 37.243 136.284 37.243 149.843C37.243 163.846 53.6438 177.892 78.5609 186.408C80.5273 187.08 82.5676 187.716 84.6703 188.319C83.9878 191.067 83.3941 193.759 82.8958 196.385C78.17 221.275 81.8606 241.039 93.6056 247.813C105.737 254.809 126.097 247.618 145.923 230.288C147.49 228.918 149.062 227.465 150.638 225.943C152.68 227.909 154.719 229.77 156.746 231.516C175.95 248.041 194.916 254.714 206.651 247.92C218.77 240.904 222.709 219.674 217.595 193.843C217.205 191.87 216.75 189.854 216.24 187.803C217.67 187.381 219.073 186.944 220.442 186.49C246.346 177.908 263.199 164.033 263.199 149.843C263.199 136.235 247.429 123.076 223.025 114.675Z" fill="#53C1DE"/>
<path d="M150.221 129.665C161.365 129.665 170.398 138.698 170.398 149.842C170.398 160.986 161.365 170.019 150.221 170.019C139.078 170.019 130.044 160.986 130.044 149.842C130.044 138.698 139.078 129.665 150.221 129.665Z" fill="#53C1DE"/>
<path d="M217.406 177.327C216.171 177.736 214.903 178.132 213.611 178.515C210.751 169.462 206.892 159.835 202.169 149.889C206.676 140.18 210.386 130.676 213.166 121.682C215.477 122.351 217.721 123.056 219.883 123.801C240.792 130.999 253.547 141.642 253.547 149.842C253.547 158.577 239.772 169.916 217.406 177.327ZM208.126 195.716C210.387 207.139 210.71 217.465 209.212 225.538C207.866 232.792 205.16 237.629 201.814 239.566C194.693 243.688 179.465 238.33 163.042 224.197C161.159 222.577 159.263 220.848 157.36 219.017C163.727 212.053 170.09 203.958 176.301 194.968C187.224 193.999 197.544 192.414 206.903 190.251C207.364 192.11 207.773 193.934 208.126 195.716ZM114.277 238.854C107.319 241.311 101.778 241.381 98.4288 239.45C91.3014 235.339 88.3384 219.47 92.3801 198.184C92.843 195.747 93.394 193.243 94.0291 190.683C103.285 192.73 113.53 194.203 124.479 195.09C130.731 203.888 137.278 211.974 143.876 219.054C142.435 220.446 140.999 221.771 139.571 223.019C130.804 230.682 122.019 236.119 114.277 238.854ZM81.6828 177.274C70.6649 173.508 61.566 168.613 55.3291 163.273C49.7248 158.473 46.8954 153.708 46.8954 149.842C46.8954 141.614 59.162 131.12 79.6207 123.987C82.1031 123.121 84.7017 122.305 87.3985 121.539C90.2259 130.737 93.935 140.353 98.4111 150.077C93.8771 159.945 90.1153 169.715 87.2601 179.02C85.3376 178.467 83.475 177.886 81.6828 177.274ZM92.6086 102.903C88.3621 81.201 91.1823 64.8299 98.2792 60.7218C105.838 56.3455 122.554 62.5852 140.172 78.2288C141.298 79.2287 142.429 80.2752 143.563 81.3579C136.998 88.4072 130.511 96.4327 124.314 105.178C113.687 106.163 103.515 107.745 94.1618 109.864C93.5738 107.499 93.053 105.175 92.6086 102.903ZM190.076 126.97C187.84 123.108 185.545 119.338 183.205 115.67C190.414 116.581 197.322 117.791 203.808 119.272C201.861 125.513 199.434 132.039 196.576 138.728C194.527 134.837 192.359 130.914 190.076 126.97ZM150.329 88.2564C154.781 93.08 159.24 98.4655 163.626 104.309C159.206 104.1 154.732 103.991 150.221 103.991C145.753 103.991 141.312 104.097 136.92 104.303C141.31 98.5137 145.807 93.1355 150.329 88.2564ZM110.327 127.037C108.094 130.91 105.966 134.812 103.949 138.721C101.138 132.055 98.7332 125.499 96.7689 119.169C103.216 117.727 110.091 116.547 117.254 115.653C114.881 119.354 112.567 123.153 110.327 127.036V127.037ZM117.46 184.72C110.059 183.894 103.081 182.775 96.6358 181.372C98.6315 174.929 101.089 168.234 103.96 161.424C105.982 165.33 108.119 169.234 110.366 173.115H110.366C112.655 177.069 115.026 180.943 117.46 184.72ZM150.596 212.108C146.021 207.172 141.458 201.712 137.001 195.838C141.327 196.008 145.738 196.095 150.221 196.095C154.827 196.095 159.38 195.991 163.861 195.792C159.461 201.771 155.018 207.24 150.596 212.108ZM196.668 161.077C199.689 167.96 202.234 174.621 204.256 180.954C197.704 182.448 190.631 183.652 183.178 184.547C185.524 180.829 187.839 176.994 190.115 173.049C192.416 169.058 194.602 165.06 196.668 161.077ZM181.753 168.227C178.221 174.351 174.595 180.197 170.914 185.716C164.209 186.195 157.281 186.442 150.221 186.442C143.19 186.442 136.35 186.224 129.763 185.796C125.934 180.205 122.229 174.342 118.719 168.279H118.72C115.219 162.233 111.998 156.136 109.079 150.074C111.997 143.997 115.21 137.893 118.69 131.858L118.69 131.859C122.179 125.808 125.852 119.973 129.646 114.417C136.366 113.909 143.257 113.644 150.221 113.644H150.221C157.217 113.644 164.116 113.911 170.834 114.424C174.571 119.939 178.218 125.755 181.721 131.807C185.264 137.927 188.519 143.99 191.462 149.937C188.528 155.985 185.281 162.11 181.753 168.227ZM201.666 60.4347C209.232 64.7981 212.175 82.396 207.421 105.472C207.118 106.945 206.776 108.444 206.405 109.964C197.031 107.801 186.851 106.192 176.193 105.192C169.985 96.3503 163.551 88.3123 157.092 81.3535C158.829 79.6831 160.563 78.0904 162.289 76.5874C178.971 62.07 194.562 56.3383 201.666 60.4347Z" fill="white"/>
</svg>
